<svg width="25" height="25" viewBox="0 0 25 25" fill="none" xmlns="http://www.w3.org/2000/svg">
<g id="pepicons-pop:map">
<g id="Group">
<path id="Vector" fill-rule="evenodd" clip-rule="evenodd" d="M12.5 11.8823C13.3574 11.8823 14.1797 11.5569 14.786 10.9778C15.3923 10.3986 15.733 9.6131 15.733 8.79405C15.733 7.97499 15.3923 7.18949 14.786 6.61033C14.1797 6.03118 13.3574 5.70581 12.5 5.70581C11.6425 5.70581 10.8202 6.03118 10.2139 6.61033C9.60763 7.18949 9.26701 7.97499 9.26701 8.79405C9.26701 9.6131 9.60763 10.3986 10.2139 10.9778C10.8202 11.5569 11.6425 11.8823 12.5 11.8823ZM12.5 8.1764C12.6715 8.1764 12.8359 8.24147 12.9572 8.3573C13.0785 8.47313 13.1466 8.63024 13.1466 8.79405C13.1466 8.95786 13.0785 9.11496 12.9572 9.23079C12.8359 9.34662 12.6715 9.41169 12.5 9.41169C12.3285 9.41169 12.164 9.34662 12.0428 9.23079C11.9215 9.11496 11.8534 8.95786 11.8534 8.79405C11.8534 8.63024 11.9215 8.47313 12.0428 8.3573C12.164 8.24147 12.3285 8.1764 12.5 8.1764Z" fill="#575DFB"/>
<path id="Vector_2" fill-rule="evenodd" clip-rule="evenodd" d="M6.03406 8.52976C6.03406 12.1282 9.66145 18.0588 12.5 18.0588C15.3385 18.0588 18.9659 12.1282 18.9659 8.52976C18.9659 4.94 16.0912 2 12.5 2C8.90882 2 6.03406 4.94124 6.03406 8.52976ZM16.3796 8.52976C16.3796 10.9435 13.5384 15.5882 12.5 15.5882C11.4616 15.5882 8.62043 10.9435 8.62043 8.52976C8.62043 6.26918 10.3792 4.47059 12.5 4.47059C14.6208 4.47059 16.3796 6.26918 16.3796 8.52976Z" fill="#575DFB"/>
<path id="Vector_3" d="M17.3236 11.8823C16.9806 11.8823 16.6517 11.7522 16.4092 11.5205C16.1667 11.2889 16.0304 10.9747 16.0304 10.647C16.0304 10.3194 16.1667 10.0052 16.4092 9.77355C16.6517 9.54189 16.9806 9.41174 17.3236 9.41174C18.1714 9.41189 18.9958 9.67732 19.6708 10.1674C20.3457 10.6576 20.834 11.3454 21.0609 12.1257L22.8584 18.3022C23.0186 18.8528 23.0432 19.4313 22.9305 19.9925C22.8177 20.5537 22.5706 21.0824 22.2085 21.5373C21.8464 21.9922 21.3791 22.3609 20.843 22.6146C20.307 22.8684 19.7168 23.0003 19.1185 23H5.87887C5.28085 22.9999 4.69095 22.8677 4.15524 22.6138C3.61953 22.3599 3.15252 21.9912 2.79069 21.5363C2.42886 21.0815 2.182 20.5529 2.0694 19.9919C1.95679 19.4309 1.98149 18.8526 2.14156 18.3022L3.9378 12.1257C4.16479 11.3452 4.65326 10.6572 5.32845 10.1671C6.00365 9.67692 6.82837 9.41162 7.67641 9.41174C8.01938 9.41174 8.34831 9.54189 8.59083 9.77355C8.83335 10.0052 8.96959 10.3194 8.96959 10.647C8.96959 10.9747 8.83335 11.2889 8.59083 11.5205C8.34831 11.7522 8.01938 11.8823 7.67641 11.8823C7.39393 11.8824 7.11926 11.9709 6.89438 12.1342C6.6695 12.2975 6.50677 12.5266 6.43107 12.7866L4.63353 18.963C4.58005 19.1467 4.57179 19.3397 4.6094 19.5269C4.64702 19.7141 4.72948 19.8905 4.85034 20.0422C4.97121 20.1939 5.12718 20.3168 5.30607 20.4013C5.48495 20.4859 5.68189 20.5297 5.88146 20.5294H19.1211C19.3205 20.5293 19.5171 20.4852 19.6957 20.4005C19.8742 20.3158 20.0299 20.1929 20.1504 20.0412C20.271 19.8896 20.3532 19.7133 20.3907 19.5263C20.4282 19.3393 20.4199 19.1465 20.3665 18.963L18.5702 12.7866C18.4945 12.5264 18.3315 12.2971 18.1064 12.1338C17.8813 11.9705 17.6063 11.8822 17.3236 11.8823Z" fill="#575DFB"/>
</g>
</g>
</svg>
