<svg width="25" height="26" viewBox="0 0 25 26" fill="none" xmlns="http://www.w3.org/2000/svg">
<g id="pepicons-pop:map">
<g id="Group">
<path id="Vector" fill-rule="evenodd" clip-rule="evenodd" d="M12.5 12.3823C13.3574 12.3823 14.1798 12.0569 14.7861 11.4778C15.3924 10.8986 15.733 10.1131 15.733 9.29405C15.733 8.47499 15.3924 7.68949 14.7861 7.11033C14.1798 6.53118 13.3574 6.20581 12.5 6.20581C11.6426 6.20581 10.8202 6.53118 10.2139 7.11033C9.60764 7.68949 9.26703 8.47499 9.26703 9.29405C9.26703 10.1131 9.60764 10.8986 10.2139 11.4778C10.8202 12.0569 11.6426 12.3823 12.5 12.3823ZM12.5 8.6764C12.6715 8.6764 12.836 8.74147 12.9572 8.8573C13.0785 8.97313 13.1466 9.13024 13.1466 9.29405C13.1466 9.45786 13.0785 9.61496 12.9572 9.73079C12.836 9.84662 12.6715 9.91169 12.5 9.91169C12.3285 9.91169 12.164 9.84662 12.0428 9.73079C11.9215 9.61496 11.8534 9.45786 11.8534 9.29405C11.8534 9.13024 11.9215 8.97313 12.0428 8.8573C12.164 8.74147 12.3285 8.6764 12.5 8.6764Z" fill="#9DB2CE"/>
<path id="Vector_2" fill-rule="evenodd" clip-rule="evenodd" d="M6.03406 9.02976C6.03406 12.6282 9.66145 18.5588 12.5 18.5588C15.3385 18.5588 18.9659 12.6282 18.9659 9.02976C18.9659 5.44 16.0912 2.5 12.5 2.5C8.90882 2.5 6.03406 5.44124 6.03406 9.02976ZM16.3796 9.02976C16.3796 11.4435 13.5384 16.0882 12.5 16.0882C11.4616 16.0882 8.62043 11.4435 8.62043 9.02976C8.62043 6.76918 10.3792 4.97059 12.5 4.97059C14.6208 4.97059 16.3796 6.76918 16.3796 9.02976Z" fill="#9DB2CE"/>
<path id="Vector_3" d="M17.3236 12.3825C16.9806 12.3825 16.6517 12.2523 16.4092 12.0206C16.1667 11.789 16.0304 11.4748 16.0304 11.1472C16.0304 10.8195 16.1667 10.5053 16.4092 10.2737C16.6517 10.042 16.9806 9.91187 17.3236 9.91187C18.1714 9.91201 18.9958 10.1774 19.6708 10.6676C20.3457 11.1577 20.834 11.8455 21.0609 12.6258L22.8584 18.8023C23.0186 19.3529 23.0432 19.9314 22.9305 20.4926C22.8177 21.0538 22.5706 21.5826 22.2085 22.0374C21.8464 22.4923 21.3791 22.861 20.843 23.1148C20.307 23.3685 19.7168 23.5004 19.1185 23.5001H5.87887C5.28085 23.5 4.69095 23.3678 4.15524 23.1139C3.61953 22.86 3.15252 22.4913 2.79069 22.0364C2.42886 21.5816 2.182 21.0531 2.0694 20.492C1.95679 19.931 1.98149 19.3527 2.14156 18.8023L3.9378 12.6258C4.16479 11.8453 4.65326 11.1573 5.32845 10.6672C6.00365 10.177 6.82837 9.91174 7.67641 9.91187C8.01938 9.91187 8.34831 10.042 8.59083 10.2737C8.83335 10.5053 8.96959 10.8195 8.96959 11.1472C8.96959 11.4748 8.83335 11.789 8.59083 12.0206C8.34831 12.2523 8.01938 12.3825 7.67641 12.3825C7.39393 12.3826 7.11926 12.471 6.89438 12.6343C6.6695 12.7976 6.50677 13.0267 6.43107 13.2867L4.63353 19.4632C4.58005 19.6468 4.57179 19.8398 4.6094 20.027C4.64702 20.2143 4.72948 20.3906 4.85034 20.5423C4.97121 20.694 5.12718 20.8169 5.30607 20.9015C5.48495 20.986 5.68189 21.0298 5.88146 21.0295H19.1211C19.3205 21.0294 19.5171 20.9853 19.6957 20.9006C19.8742 20.816 20.0299 20.693 20.1504 20.5413C20.271 20.3897 20.3532 20.2135 20.3907 20.0264C20.4282 19.8394 20.4199 19.6466 20.3665 19.4632L18.5702 13.2867C18.4945 13.0265 18.3315 12.7972 18.1064 12.6339C17.8813 12.4706 17.6063 12.3823 17.3236 12.3825Z" fill="#9DB2CE"/>
</g>
</g>
</svg>
