<svg width="83" height="48" viewBox="0 0 83 48" fill="none" xmlns="http://www.w3.org/2000/svg">
<g id="Union">
<mask id="path-1-outside-1_159_363" maskUnits="userSpaceOnUse" x="0" y="0" width="83" height="48" fill="black">
<rect fill="white" width="83" height="48"/>
<path fill-rule="evenodd" clip-rule="evenodd" d="M19 1C9.05888 1 1 9.05888 1 19V20C1 29.9411 9.05887 38 19 38H34.2589C34.3406 38.2273 34.4524 38.4509 34.5965 38.6665L39.0055 45.2661C40.1933 47.0441 42.8067 47.0441 43.9945 45.2661L48.4035 38.6665C48.5476 38.4509 48.6594 38.2273 48.7411 38H64C73.9411 38 82 29.9411 82 20V19C82 9.05888 73.9411 1 64 1H19Z"/>
</mask>
<path fill-rule="evenodd" clip-rule="evenodd" d="M19 1C9.05888 1 1 9.05888 1 19V20C1 29.9411 9.05887 38 19 38H34.2589C34.3406 38.2273 34.4524 38.4509 34.5965 38.6665L39.0055 45.2661C40.1933 47.0441 42.8067 47.0441 43.9945 45.2661L48.4035 38.6665C48.5476 38.4509 48.6594 38.2273 48.7411 38H64C73.9411 38 82 29.9411 82 20V19C82 9.05888 73.9411 1 64 1H19Z" fill="white"/>
<path d="M34.2589 38L35.1999 37.6617L34.962 37H34.2589V38ZM34.5965 38.6665L35.428 38.111V38.111L34.5965 38.6665ZM39.0055 45.2661L38.174 45.8216L39.0055 45.2661ZM43.9945 45.2661L44.826 45.8216L43.9945 45.2661ZM48.4035 38.6665L47.572 38.111V38.111L48.4035 38.6665ZM48.7411 38V37H48.038L47.8001 37.6617L48.7411 38ZM2 19C2 9.61116 9.61116 2 19 2V0C8.50659 0 0 8.50659 0 19H2ZM2 20V19H0V20H2ZM19 37C9.61116 37 2 29.3888 2 20H0C0 30.4934 8.50659 39 19 39V37ZM34.2589 37H19V39H34.2589V37ZM35.428 38.111C35.3288 37.9626 35.2539 37.8119 35.1999 37.6617L33.3179 38.3383C33.4273 38.6427 33.576 38.9392 33.7649 39.2221L35.428 38.111ZM39.837 44.7106L35.428 38.111L33.7649 39.222L38.174 45.8216L39.837 44.7106ZM43.163 44.7106C42.3711 45.8959 40.6289 45.8959 39.837 44.7106L38.174 45.8216C39.7577 48.1922 43.2423 48.1922 44.826 45.8216L43.163 44.7106ZM47.572 38.111L43.163 44.7106L44.826 45.8216L49.2351 39.222L47.572 38.111ZM47.8001 37.6617C47.7461 37.8119 47.6712 37.9626 47.572 38.111L49.2351 39.2221C49.424 38.9392 49.5727 38.6427 49.6821 38.3383L47.8001 37.6617ZM64 37H48.7411V39H64V37ZM81 20C81 29.3888 73.3888 37 64 37V39C74.4934 39 83 30.4934 83 20H81ZM81 19V20H83V19H81ZM64 2C73.3888 2 81 9.61116 81 19H83C83 8.50659 74.4934 0 64 0V2ZM19 2H64V0H19V2Z" fill="#CFCFCF" mask="url(#path-1-outside-1_159_363)"/>
</g>
</svg>
