<svg width="34" height="43" viewBox="0 0 34 43" fill="none" xmlns="http://www.w3.org/2000/svg">
<path d="M16.8176 0.0176411C14.5836 -0.0871365 12.3524 0.275692 10.2667 1.0829C8.18094 1.89011 6.28675 3.12391 4.70533 4.70533C3.12391 6.28675 1.89011 8.18094 1.0829 10.2666C0.275692 12.3524 -0.0871365 14.5836 0.0176411 16.8176C0.0176411 22.1096 4.21764 27.3176 6.31764 29.4176C8.41764 31.5176 16.8176 42.0176 16.8176 42.0176C16.8176 42.0176 25.2176 31.5176 27.3176 29.4176C29.4176 27.3176 33.6176 22.1096 33.6176 16.8176C33.7224 14.5836 33.3596 12.3524 32.5524 10.2666C31.7452 8.18094 30.5114 6.28675 28.93 4.70533C27.3485 3.12391 25.4543 1.89011 23.3686 1.0829C21.2829 0.275692 19.0517 -0.0871365 16.8176 0.0176411ZM16.8176 23.6426C15.4678 23.6426 14.1482 23.2424 13.0259 22.4924C11.9035 21.7425 11.0287 20.6766 10.5122 19.4295C9.9956 18.1824 9.86044 16.8101 10.1238 15.4861C10.3871 14.1622 11.0371 12.9461 11.9916 11.9916C12.9461 11.0371 14.1622 10.3871 15.4861 10.1238C16.8101 9.86044 18.1824 9.99559 19.4295 10.5122C20.6766 11.0287 21.7425 11.9035 22.4924 13.0259C23.2424 14.1482 23.6426 15.4678 23.6426 16.8176C23.6426 17.7139 23.4661 18.6014 23.1231 19.4295C22.7801 20.2575 22.2774 21.0099 21.6436 21.6436C21.0099 22.2774 20.2575 22.7801 19.4295 23.1231C18.6014 23.4661 17.7139 23.6426 16.8176 23.6426Z" fill="#575DFB"/>
<circle cx="16.8176" cy="17.0176" r="7" fill="white"/>
</svg>
