<svg width="24" height="24" viewBox="0 0 24 24" fill="none" xmlns="http://www.w3.org/2000/svg">
<g id="Plus_Btn/Variant3" clip-path="url(#clip0_159_769)">
<path id="Vector" d="M13.484 10.492V7.608C13.484 6.77986 12.8161 6.112 11.988 6.112C11.1599 6.112 10.492 6.77986 10.492 7.608V10.492H7.596C7.19466 10.492 6.82289 10.6557 6.54603 10.9152L6.53426 10.9263L6.52323 10.938C6.2639 11.2147 6.1 11.5852 6.1 11.988C6.1 12.8182 6.76758 13.4781 7.58513 13.4959L7.58513 13.496H7.596H10.492V16.392C10.492 17.2201 11.1599 17.888 11.988 17.888C12.8161 17.888 13.484 17.2201 13.484 16.392V13.496H16.392V13.4961L16.4029 13.4959C17.2204 13.4781 17.888 12.8182 17.888 11.988C17.888 11.1599 17.2201 10.492 16.392 10.492H13.484ZM17.592 0.5C19.5395 0.5 20.9997 1.04836 21.9732 2.01778C22.9463 2.98688 23.5 4.44355 23.5 6.396V17.604C23.5 19.5445 22.9493 21.0018 21.9782 21.9742C21.0073 22.9465 19.5501 23.5 17.604 23.5H6.396C4.44354 23.5 2.98671 22.9463 2.01754 21.9744C1.04814 21.0024 0.5 19.5452 0.5 17.604V6.396C0.5 4.44216 1.0485 2.98561 2.01705 2.01705C2.98561 1.0485 4.44216 0.5 6.396 0.5H17.592Z" fill="#808080" stroke="#808080"/>
</g>
<defs>
<clipPath id="clip0_159_769">
<rect width="24" height="24" fill="white"/>
</clipPath>
</defs>
</svg>
