<svg width="24" height="24" viewBox="0 0 24 24" fill="none" xmlns="http://www.w3.org/2000/svg">
<path d="M5 21C4.45 21 3.97933 20.8043 3.588 20.413C3.19667 20.0217 3.00067 19.5507 3 19V5C3 4.45 3.196 3.97933 3.588 3.588C3.98 3.19667 4.45067 3.00067 5 3H19C19.55 3 20.021 3.196 20.413 3.588C20.805 3.98 21.0007 4.45067 21 5V19C21 19.55 20.8043 20.021 20.413 20.413C20.0217 20.805 19.5507 21.0007 19 21H5ZM12 18C13.6167 16.6333 14.821 15.3627 15.613 14.188C16.405 13.0133 16.8007 11.9257 16.8 10.925C16.8 9.40833 16.3167 8.20833 15.35 7.325C14.3833 6.44167 13.2667 6 12 6C10.7333 6 9.61667 6.44167 8.65 7.325C7.68333 8.20833 7.2 9.40833 7.2 10.925C7.2 11.925 7.596 13.0127 8.388 14.188C9.18 15.3633 10.384 16.634 12 18ZM12 12.25C11.65 12.25 11.354 12.129 11.112 11.887C10.87 11.645 10.7493 11.3493 10.75 11C10.75 10.65 10.871 10.354 11.113 10.112C11.355 9.87 11.6507 9.74933 12 9.75C12.35 9.75 12.646 9.871 12.888 10.113C13.13 10.355 13.2507 10.6507 13.25 11C13.25 11.35 13.129 11.646 12.887 11.888C12.645 12.13 12.3493 12.2507 12 12.25Z" fill="#FF7A00"/>
</svg>
