<svg width="24" height="24" viewBox="0 0 24 24" fill="none" xmlns="http://www.w3.org/2000/svg">
<g id="wallet">
<g id="vuesax/linear/wallet">
<path id="Vector" d="M12.0064 5.75C13.7362 5.74993 15.3988 6.4418 16.6447 7.68024C17.8907 8.91867 18.623 10.6073 18.6879 12.3912L18.6924 12.65V20.7H19.8067C20.0907 20.7003 20.3639 20.8126 20.5704 21.0138C20.777 21.215 20.9012 21.49 20.9179 21.7826C20.9345 22.0752 20.8423 22.3633 20.66 22.5881C20.4777 22.8129 20.2191 22.9573 19.9371 22.9919L19.8067 23H4.20603C3.92201 22.9997 3.64883 22.8874 3.4423 22.6862C3.23577 22.485 3.11149 22.21 3.09485 21.9174C3.0782 21.6248 3.17045 21.3367 3.35275 21.1119C3.53504 20.8871 3.79362 20.7427 4.07565 20.708L4.20603 20.7H5.32036V12.65C5.32036 10.82 6.02478 9.06496 7.27865 7.77096C8.53252 6.47696 10.2331 5.75 12.0064 5.75ZM12.0064 8.05C10.8242 8.05 9.69047 8.53464 8.85455 9.39731C8.01864 10.26 7.54903 11.43 7.54903 12.65V20.7H16.4637V12.65C16.4637 11.43 15.9941 10.26 15.1582 9.39731C14.3223 8.53464 13.1885 8.05 12.0064 8.05ZM12.5802 11.0894C12.8332 11.2466 13.0154 11.5008 13.0868 11.7964C13.1583 12.092 13.1132 12.4048 12.9614 12.6661L12.3039 13.8H13.6578C14.5326 13.8 15.073 14.7855 14.6228 15.5595L12.9625 18.4172C12.8103 18.6789 12.5636 18.8675 12.2766 18.9415C11.9897 19.0155 11.6861 18.9688 11.4325 18.8117C11.1789 18.6546 10.9962 18.4 10.9245 18.1039C10.8528 17.8078 10.8981 17.4944 11.0503 17.2327L11.71 16.1H10.3549C10.1557 16.1 9.96004 16.0455 9.78793 15.9419C9.61582 15.8384 9.47343 15.6896 9.37529 15.5106C9.27716 15.3317 9.22681 15.1291 9.22938 14.9235C9.23194 14.7179 9.28734 14.5168 9.38991 14.3405L11.0503 11.4827C11.1257 11.3532 11.225 11.2402 11.3427 11.1503C11.4605 11.0604 11.5942 10.9954 11.7363 10.9588C11.8784 10.9223 12.026 10.9151 12.1709 10.9375C12.3157 10.9599 12.4548 11.0115 12.5802 11.0894ZM4.91475 3.7053L5.70258 4.51835C5.9007 4.73607 6.00896 5.0248 6.00447 5.32344C5.99997 5.62208 5.88307 5.9072 5.6785 6.11847C5.47393 6.32974 5.19773 6.45058 4.90836 6.45543C4.61899 6.46028 4.33914 6.34875 4.12803 6.14445L3.34019 5.3314C3.23376 5.22532 3.14887 5.09842 3.09047 4.95812C3.03207 4.81781 3.00133 4.66691 3.00004 4.51421C2.99876 4.36152 3.02695 4.21008 3.08298 4.06875C3.13901 3.92742 3.22175 3.79902 3.32638 3.69105C3.43101 3.58307 3.55543 3.49768 3.69237 3.43986C3.82932 3.38203 3.97606 3.35293 4.12402 3.35426C4.27198 3.35559 4.4182 3.38731 4.55415 3.44758C4.69011 3.50785 4.81195 3.59546 4.91475 3.7053ZM20.6737 3.7053C20.8655 3.90332 20.9808 4.16679 20.9978 4.44627C21.0148 4.72575 20.9325 5.00204 20.7661 5.2233L20.6737 5.3314L19.8858 6.14445C19.6853 6.3507 19.4162 6.47044 19.1332 6.47936C18.8502 6.48828 18.5746 6.3857 18.3622 6.19246C18.1499 5.99923 18.0167 5.72982 17.9899 5.43895C17.963 5.14809 18.0445 4.85759 18.2177 4.62645L18.3102 4.51835L19.098 3.7053C19.307 3.48971 19.5903 3.3686 19.8858 3.3686C20.1813 3.3686 20.4647 3.48971 20.6737 3.7053ZM12.0064 0C12.2793 3.71571e-05 12.5427 0.10345 12.7467 0.290623C12.9507 0.477796 13.081 0.735711 13.1129 1.01545L13.1207 1.15V2.3C13.1204 2.59311 13.0116 2.87504 12.8167 3.08817C12.6217 3.30131 12.3552 3.42957 12.0717 3.44675C11.7881 3.46393 11.509 3.36872 11.2912 3.1806C11.0734 2.99247 10.9334 2.72561 10.8998 2.43455L10.892 2.3V1.15C10.892 0.845001 11.0094 0.552494 11.2184 0.336827C11.4274 0.12116 11.7108 0 12.0064 0Z" fill="#9DB2CE"/>
</g>
</g>
</svg>
